<?xml version="1.0" encoding="UTF-8"?>
<svg width="110px" height="45px" viewBox="0 0 110 45" version="1.1" xmlns="http://www.w3.org/2000/svg" xmlns:xlink="http://www.w3.org/1999/xlink">
    <!-- Generator: Sketch 58 (84663) - https://sketch.com -->
    <title>Group</title>
    <desc>Created with Sketch.</desc>
    <g id="Page-1" stroke="none" stroke-width="1" fill="none" fill-rule="evenodd">
        <g id="Group" transform="translate(0.010640, 0.809570)" fill="#FFFFFF" fill-rule="nonzero">
            <path d="M107.24875,15.74 C108.74875,15.74 109.97875,14.52 109.97875,13.01 C109.97875,11.5 108.74875,10.28 107.24875,10.28 C105.73875,10.28 104.51,11.5 104.51,13.01 C104.51,14.52 105.73875,15.74 107.24875,15.74 Z M109.61875,13.01 C109.61875,14.31 108.55875,15.38 107.24875,15.38 C105.93875,15.38 104.88,14.31 104.88,13.01 C104.88,11.7 105.94,10.64 107.24875,10.64 C108.56,10.64 109.61875,11.7 109.61875,13.01 Z" id="Shape" transform="translate(107.244375, 13.010000) scale(-1, 1) rotate(-180.000000) translate(-107.244375, -13.010000) "></path>
            <path d="M108.47875,11.5 L107.97875,11.5 C107.95,11.61 107.93875,11.71 107.93875,11.88 C107.93875,12.52 107.74,12.69 107.18875,12.69 L106.66,12.69 L106.66,11.5 L106.18,11.5 L106.18,14.5 L107.19,14.5 C107.83125,14.5 108.48,14.36 108.48,13.63 C108.48,13.12 108.08875,12.95 107.74125,12.9 C108.19,12.8 108.4225,12.53 108.4225,12 C108.42,11.79 108.44,11.58 108.47875,11.5 Z M107.94875,13.63 C107.94875,13.98 107.65875,14.14 107.1875,14.14 L106.65875,14.14 L106.65875,13.05 L107.1875,13.05 C107.68,13.05 107.94875,13.24 107.94875,13.63 Z" id="Shape" transform="translate(107.330000, 13.000000) scale(-1, 1) rotate(-180.000000) translate(-107.330000, -13.000000) "></path>
            <polygon id="Path" transform="translate(91.229375, 21.630000) scale(-1, 1) rotate(-180.000000) translate(-91.229375, -21.630000) " points="95.8 22.53 103.64 10.36 95.52875 10.36 91.77 17 87.01 10.36 78.81875 10.36 87.85 22.56 80.93 32.9 89.19875 32.9 91.86875 28.12 94.96 32.9 103.26 32.9"></polygon>
            <polygon id="Path" transform="translate(74.265000, 10.360000) scale(-1, 1) rotate(-180.000000) translate(-74.265000, -10.360000) " points="70.88 10.36 77.65 10.36 77.65 10.36"></polygon>
            <path d="M74.27,43.26875 C76.61,43.26875 78.50875,41.37875 78.50875,39.03875 C78.50875,36.69875 76.60875,34.8 74.27,34.8 C71.92875,34.8 70.0299994,36.7 70.0299994,39.03875 C70.02875,41.37875 71.93,43.26875 74.27,43.26875 Z" id="Path" transform="translate(74.269375, 39.034375) scale(-1, 1) rotate(-180.000000) translate(-74.269375, -39.034375) "></path>
            <path d="M62.49875,19.34 L69.39,10.36 L60.87,10.36 L56.57,17.09 L56.57,10.36 L49.81,10.36 L49.81,32.9 L58.67,32.9 C61.3,32.9 63.43,32.16 64.82875,30.76 C66.07875,29.51 66.71,27.82 66.71,25.72 C66.71,22.62 65.07875,20.22 62.49875,19.34 Z M60.65875,25.38 C60.65875,26.14 60.46,26.7 60.05875,27.11 C59.25875,27.91 57.71875,28.02 56.57,28.03 L56.57,22.72 C59.46,22.75 60.65875,23.52 60.65875,25.38 Z" id="Shape" transform="translate(59.600000, 21.630000) scale(-1, 1) rotate(-180.000000) translate(-59.600000, -21.630000) "></path>
            <polygon id="Path" transform="translate(39.474375, 21.630000) scale(-1, 1) rotate(-180.000000) translate(-39.474375, -21.630000) " points="47.97875 32.9 47.97875 27.01 42.83875 27.01 42.83875 10.36 36.10875 10.36 36.10875 27.01 30.97 27.01 30.97 32.9"></polygon>
            <polygon id="Path" transform="translate(25.769375, 21.630000) scale(-1, 1) rotate(-180.000000) translate(-25.769375, -21.630000) " points="29.14875 32.9 29.14875 10.36 22.39 10.36 22.39 13.45 22.39 29.79 22.39 32.9"></polygon>
            <path d="M25.77,8.48 C28.11,8.48 30.00875,6.58 30.00875,4.25 C30.00875,1.91 28.10875,0 25.77,0 C23.42,0 21.5299994,1.91 21.5299994,4.25 C21.52875,6.58 23.41875,8.48 25.77,8.48 Z" id="Path" transform="translate(25.769375, 4.240000) scale(-1, 1) rotate(-180.000000) translate(-25.769375, -4.240000) "></path>
            <path d="M20.33,29.7937492 L16.77,24.0437492 C15.77,25.7037492 13.79875,26.7737492 11.81,26.7737492 C8.96875,26.7737492 6.89,24.4637492 6.89,21.6237492 C6.89,18.7837492 8.96875,16.4824992 11.81,16.4824992 C13.79875,16.4824992 15.77,17.5524992 16.77,19.2124992 L20.33,13.4524992 C18.18,11.2124992 15.16,9.82124916 11.81,9.82124916 C5.29,9.82124916 0,15.0999992 0,21.6224992 C0,28.1424992 5.29,33.4425 11.81,33.4425 C15.16,33.4437492 18.18,32.0437492 20.33,29.7937492 Z" id="Path" transform="translate(10.165000, 21.631875) scale(-1, 1) rotate(-180.000000) translate(-10.165000, -21.631875) "></path>
            <polygon id="Path" points="77.64836 10.35943 77.64836 32.89943 70.88936 32.89943 70.88936 29.81043 70.88936 13.47043 70.88936 10.35943"></polygon>
        </g>
    </g>
</svg>